<?xml version="1.0" encoding="UTF-8" standalone="no"?>
<!-- Created with Inkscape (http://www.inkscape.org/) -->

<svg
   xmlns:dc="http://purl.org/dc/elements/1.1/"
   xmlns:cc="http://creativecommons.org/ns#"
   xmlns:rdf="http://www.w3.org/1999/02/22-rdf-syntax-ns#"
   xmlns:svg="http://www.w3.org/2000/svg"
   xmlns="http://www.w3.org/2000/svg"
   xmlns:sodipodi="http://sodipodi.sourceforge.net/DTD/sodipodi-0.dtd"
   xmlns:inkscape="http://www.inkscape.org/namespaces/inkscape"
   width="90.710922mm"
   height="59.931427mm"
   viewBox="0 0 90.710922 59.931427"
   version="1.1"
   id="svg8"
   inkscape:version="0.92.2 5c3e80d, 2017-08-06"
   sodipodi:docname="oqueeuiafalar-logo-grande.svg">
  <defs
     id="defs2" />
  <sodipodi:namedview
     id="base"
     pagecolor="#ffffff"
     bordercolor="#666666"
     borderopacity="1.0"
     inkscape:pageopacity="0.0"
     inkscape:pageshadow="2"
     inkscape:zoom="1.2735628"
     inkscape:cx="422.72844"
     inkscape:cy="93.788487"
     inkscape:document-units="mm"
     inkscape:current-layer="layer1"
     showgrid="false"
     inkscape:window-width="1440"
     inkscape:window-height="855"
     inkscape:window-x="0"
     inkscape:window-y="1"
     inkscape:window-maximized="1"
     fit-margin-top="0"
     fit-margin-left="0"
     fit-margin-right="0"
     fit-margin-bottom="0"
     inkscape:showpageshadow="false" />
  <metadata
     id="metadata5">
    <rdf:RDF>
      <cc:Work
         rdf:about="">
        <dc:format>image/svg+xml</dc:format>
        <dc:type
           rdf:resource="http://purl.org/dc/dcmitype/StillImage" />
        <dc:title></dc:title>
      </cc:Work>
    </rdf:RDF>
  </metadata>
  <g
     inkscape:label="Layer 1"
     inkscape:groupmode="layer"
     id="layer1"
     transform="translate(-45.386894,-94.636586)">
    <path
       style="opacity:1;fill:#f9f9f9;fill-opacity:1;stroke:none;stroke-width:0.5;stroke-miterlimit:4;stroke-dasharray:none"
       d="m 47.636884,94.636599 c -0.498739,1.14e-4 -0.958215,0.164791 -1.331184,0.439767 -0.0914,0.06736 -0.178801,0.139525 -0.2589,0.219625 -0.05091,0.05091 -0.09941,0.104109 -0.145209,0.159679 -0.0917,0.111133 -0.173064,0.231114 -0.242364,0.358635 -0.0346,0.06376 -0.06607,0.129079 -0.09457,0.196371 v 5.29e-4 c -0.05676,0.134448 -0.101259,0.275921 -0.13126,0.422196 -0.03,0.146439 -0.04547,0.297931 -0.04547,0.453204 v 17.235125 26.78854 c 0,1.24216 1.007295,2.24999 2.249474,2.24999 6.529623,0.20029 39.746872,0.0729 55.381629,0.0227 5.00435,5.16664 5.08138,6.18826 9.42626,8.42648 2.22716,1.10862 4.76063,1.96712 7.91584,2.58319 0.82197,0.16049 1.63553,0.32313 1.78697,0.35553 0.13775,0.0295 0.28973,0.0341 0.42581,-0.0429 0.13611,-0.077 0.20988,-0.21235 0.25218,-0.34572 0.0284,-0.0896 0.0499,-0.17311 0.0605,-0.25011 0.005,-0.0385 0.008,-0.0746 0.006,-0.11937 -0.001,-0.0224 -0.003,-0.0479 -0.0134,-0.0837 -0.0109,-0.0357 -0.0298,-0.0915 -0.10335,-0.14263 -3.44539,-2.39346 -5.24181,-4.77584 -6.504,-8.62893 -0.27859,-0.85046 -0.41201,-1.33285 -0.42581,-1.6154 -0.003,-0.0617 -2.6e-4,-0.11246 0.006,-0.15917 h 17.99528 c 1.2422,0 2.25051,-1.00783 2.25051,-2.24999 V 114.12171 96.886592 c 0,-0.233079 -0.0354,-0.457745 -0.10128,-0.66921 -0.0219,-0.07029 -0.0476,-0.139039 -0.076,-0.20619 v -5.29e-4 c -0.0285,-0.06729 -0.0604,-0.132612 -0.0951,-0.196371 -0.0346,-0.06376 -0.0722,-0.12567 -0.11266,-0.185518 -0.16176,-0.239411 -0.3683,-0.445942 -0.60771,-0.607717 -0.35912,-0.242659 -0.79199,-0.384471 -1.25781,-0.384471 H 47.6374 Z m 74.745826,59.239791 c -0.007,0.0378 -0.0165,0.0805 -0.0331,0.13281 -0.0112,0.0353 -0.0198,0.0524 -0.0238,0.0594 z"
       id="path1052"
       inkscape:connector-curvature="0"
       sodipodi:nodetypes="ccccccccscscccccccccccsccsscsccccccscccccc"
       inkscape:export-filename="/Users/teles/dev/natalia.blog.br/source/images/oqueeuiafalar-logo-grande.png"
       inkscape:export-xdpi="139"
       inkscape:export-ydpi="139" />
    <path
       style="color:#000000;font-style:normal;font-variant:normal;font-weight:normal;font-stretch:normal;font-size:medium;line-height:normal;font-family:sans-serif;font-variant-ligatures:normal;font-variant-position:normal;font-variant-caps:normal;font-variant-numeric:normal;font-variant-alternates:normal;font-feature-settings:normal;text-indent:0;text-align:start;text-decoration:none;text-decoration-line:none;text-decoration-style:solid;text-decoration-color:#000000;letter-spacing:normal;word-spacing:normal;text-transform:none;writing-mode:lr-tb;direction:ltr;text-orientation:mixed;dominant-baseline:auto;baseline-shift:baseline;text-anchor:start;white-space:normal;shape-padding:0;clip-rule:nonzero;display:inline;overflow:visible;visibility:visible;opacity:1;isolation:auto;mix-blend-mode:normal;color-interpolation:sRGB;color-interpolation-filters:linearRGB;solid-color:#000000;solid-opacity:1;vector-effect:none;fill:#333333;fill-opacity:1;fill-rule:nonzero;stroke:none;stroke-width:1.88976383;stroke-linecap:butt;stroke-linejoin:miter;stroke-miterlimit:4;stroke-dasharray:none;stroke-dashoffset:0;stroke-opacity:1;color-rendering:auto;image-rendering:auto;shape-rendering:auto;text-rendering:auto;enable-background:accumulate"
       d="m 180.04492,357.68164 c -4.69484,0 -8.5039,3.80907 -8.5039,8.50391 v 65.14062 h 1.88867 v -65.14062 c 0,-3.6806 2.93463,-6.61328 6.61523,-6.61328 h 325.83594 c 3.68058,0 6.61328,2.93268 6.61328,6.61328 v 166.38867 c 0,3.68058 -2.9327,6.61328 -6.61328,6.61328 h -86.20117 v 0.40625 c 0,0.50854 -0.0516,1.0045 -0.14649,1.48437 h 16.43946 c -0.0218,0.22213 -0.0334,0.45013 -0.0215,0.69141 0.0737,1.50648 0.64515,3.36403 1.70508,6.59961 4.80408,14.66563 11.95408,24.10957 24.89258,33.21094 -0.0265,0.14286 -0.0623,0.30424 -0.125,0.50195 -0.0423,0.13342 -0.074,0.1974 -0.0899,0.22461 -0.0113,-3.8e-4 -0.0632,0.004 -0.27148,-0.041 -0.6638,-0.14211 -3.68283,-0.73454 -6.79297,-1.34179 -11.771,-2.29833 -24.0418,-6.23537 -32.2207,-10.30664 -5.68029,-2.82754 -10.40999,-5.94772 -14.77149,-9.92578 h -2.72851 c 4.90707,4.77747 10.20859,8.41451 16.6582,11.625 8.41761,4.19009 20.77597,8.13053 32.70117,10.45898 3.10666,0.60654 6.18154,1.22126 6.75391,1.34375 0.52063,0.1115 1.09502,0.12891 1.60937,-0.16211 0.5144,-0.29102 0.79314,-0.80253 0.95313,-1.30664 0.10734,-0.33865 0.18845,-0.65417 0.22851,-0.94531 0.0189,-0.14551 0.031,-0.28196 0.0234,-0.45117 -0.004,-0.0847 -0.0115,-0.1811 -0.0527,-0.31641 -0.0416,-0.13493 -0.11264,-0.34582 -0.39063,-0.53906 -13.02194,-9.04615 -19.81158,-18.05039 -24.58203,-32.61328 -1.05294,-3.21434 -1.55725,-5.0376 -1.60937,-6.10547 -0.0107,-0.23335 1.3e-4,-0.42503 0.0234,-0.60157 h 68.01563 c 4.69482,0 8.50391,-3.80909 8.50391,-8.5039 V 366.18555 c 0,-4.69484 -3.80909,-8.50391 -8.50391,-8.50391 z"
       transform="scale(0.26458333)"
       id="path941"
       inkscape:export-filename="/Users/teles/dev/natalia.blog.br/source/images/oqueeuiafalar-logo-grande.png"
       inkscape:export-xdpi="139"
       inkscape:export-ydpi="139"
       inkscape:connector-curvature="0" />
    <g
       aria-label="O QUE"
       style="font-style:normal;font-weight:normal;font-size:14.77762604px;line-height:1.25;font-family:sans-serif;letter-spacing:0px;word-spacing:0px;fill:#333333;fill-opacity:1;stroke:none;stroke-width:0.36944064"
       id="text14">
      <path
         d="m 50.639622,124.90471 q 1.320451,0 2.092518,-0.9741 0.779283,-0.9741 0.779283,-2.77078 0,-1.78947 -0.779283,-2.76357 -0.772067,-0.98132 -2.092518,-0.98132 -1.320451,0 -2.10695,0.9741 -0.786498,0.97411 -0.786498,2.77079 0,1.79668 0.786498,2.77078 0.786499,0.9741 2.10695,0.9741 z m 5.0942,-3.74488 q 0,2.86458 -1.609075,4.38707 -1.205002,1.24108 -3.485125,1.24108 -2.280123,0 -3.485125,-1.24108 -1.61629,-1.52249 -1.61629,-4.38707 0,-2.92231 1.61629,-4.38708 1.205002,-1.24107 3.485125,-1.24107 2.280123,0 3.485125,1.24107 1.609075,1.46477 1.609075,4.38708 z m -5.0942,-5.62815 z"
         style="font-style:normal;font-variant:normal;font-weight:bold;font-stretch:normal;font-size:14.77750874px;font-family:Helvetica;-inkscape-font-specification:'Helvetica, Bold';font-variant-ligatures:normal;font-variant-caps:normal;font-variant-numeric:normal;font-feature-settings:normal;text-align:start;writing-mode:lr-tb;text-anchor:start;fill:#333333;fill-opacity:1;stroke-width:0.36944064"
         id="path1146"
         inkscape:connector-curvature="0" />
      <path
         d="m 66.203629,124.90471 q 0.382425,0 0.735989,-0.0938 0.19482,-0.0505 0.497875,-0.18039 l -1.075122,-1.02461 1.147278,-1.19779 1.075121,1.02462 q 0.252545,-0.51953 0.353564,-0.90917 0.158742,-0.58446 0.158742,-1.36374 0,-1.78947 -0.735989,-2.76357 -0.728774,-0.98132 -2.135812,-0.98132 -1.320451,0 -2.106949,0.93803 -0.786498,0.93802 -0.786498,2.80686 0,2.18632 1.12563,3.13156 0.728774,0.61332 1.746171,0.61332 z m 5.115846,-3.90362 q 0,1.42146 -0.346348,2.38114 -0.281407,0.91638 -0.829792,1.52248 l 1.226649,1.14728 -1.161708,1.21222 -1.284374,-1.21222 q -0.584462,0.35356 -1.010181,0.49788 -0.714342,0.23811 -1.710092,0.23811 -2.078088,0 -3.434617,-1.24108 -1.645152,-1.49362 -1.645152,-4.38707 0,-2.9151 1.688446,-4.40872 1.378176,-1.21943 3.4274,-1.21943 2.063656,0 3.463479,1.29158 1.61629,1.49363 1.61629,4.17783 z"
         style="font-style:normal;font-variant:normal;font-weight:bold;font-stretch:normal;font-size:14.77750874px;font-family:Helvetica;-inkscape-font-specification:'Helvetica, Bold';font-variant-ligatures:normal;font-variant-caps:normal;font-variant-numeric:normal;font-feature-settings:normal;text-align:start;writing-mode:lr-tb;text-anchor:start;fill:#333333;fill-opacity:1;stroke-width:0.36944064"
         id="path1148"
         inkscape:connector-curvature="0" />
      <path
         d="m 73.00792,115.85638 h 2.258477 v 6.53731 q 0,1.09677 0.259761,1.60186 0.404073,0.89473 1.760602,0.89473 1.349313,0 1.753386,-0.89473 0.259761,-0.50509 0.259761,-1.60186 v -6.53731 h 2.258476 v 6.53731 q 0,1.69566 -0.526737,2.6409 -0.981319,1.73174 -3.744886,1.73174 -2.763568,0 -3.752102,-1.73174 -0.526738,-0.94524 -0.526738,-2.6409 z m 4.27884,0 z"
         style="font-style:normal;font-variant:normal;font-weight:bold;font-stretch:normal;font-size:14.77750874px;font-family:Helvetica;-inkscape-font-specification:'Helvetica, Bold';font-variant-ligatures:normal;font-variant-caps:normal;font-variant-numeric:normal;font-feature-settings:normal;text-align:start;writing-mode:lr-tb;text-anchor:start;fill:#333333;fill-opacity:1;stroke-width:0.36944064"
         id="path1150"
         inkscape:connector-curvature="0" />
      <path
         d="m 91.551961,117.73964 h -5.628153 v 2.25848 h 5.166356 v 1.84719 h -5.166356 v 2.7347 h 5.887914 v 1.91213 h -8.059803 v -10.63576 h 7.800042 z"
         style="font-style:normal;font-variant:normal;font-weight:bold;font-stretch:normal;font-size:14.77750874px;font-family:Helvetica;-inkscape-font-specification:'Helvetica, Bold';font-variant-ligatures:normal;font-variant-caps:normal;font-variant-numeric:normal;font-feature-settings:normal;text-align:start;writing-mode:lr-tb;text-anchor:start;fill:#333333;fill-opacity:1;stroke-width:0.36944064"
         id="path1152"
         inkscape:connector-curvature="0" />
    </g>
    <g
       aria-label="EU IA FALAR?"
       style="font-style:normal;font-weight:normal;font-size:10.58333302px;line-height:1.25;font-family:sans-serif;letter-spacing:0px;word-spacing:0px;fill:#333333;fill-opacity:1;stroke:none;stroke-width:0.26458332"
       id="text32">
      <path
         d="m 45.538208,136.01155 v -7.62 h 5.069416 v 0.61383 h -4.34975 v 2.75167 h 3.926417 v 0.61383 h -3.926417 v 3.02684 h 4.455584 v 0.61383 z"
         style="font-style:normal;font-variant:normal;font-weight:300;font-stretch:normal;font-size:10.58333302px;font-family:Helvetica;-inkscape-font-specification:'Helvetica, Light';font-variant-ligatures:normal;font-variant-caps:normal;font-variant-numeric:normal;font-feature-settings:normal;text-align:start;writing-mode:lr-tb;text-anchor:start;fill:#333333;fill-opacity:1;stroke-width:0.26458332"
         id="path1155"
         inkscape:connector-curvature="0" />
      <path
         d="m 52.01868,128.39155 h 0.719667 v 4.54025 q 0,1.41817 0.529167,2.04258 0.529166,0.62442 1.703916,0.62442 0.613833,0 1.037167,-0.15875 0.433916,-0.16933 0.6985,-0.49742 0.264583,-0.33866 0.381,-0.83608 0.116416,-0.49742 0.116416,-1.17475 v -4.54025 h 0.719667 v 4.75192 q 0,1.49225 -0.740833,2.286 -0.73025,0.78316 -2.211917,0.78316 -1.49225,0 -2.2225,-0.80433 -0.73025,-0.80433 -0.73025,-2.26483 z"
         style="font-style:normal;font-variant:normal;font-weight:300;font-stretch:normal;font-size:10.58333302px;font-family:Helvetica;-inkscape-font-specification:'Helvetica, Light';font-variant-ligatures:normal;font-variant-caps:normal;font-variant-numeric:normal;font-feature-settings:normal;text-align:start;writing-mode:lr-tb;text-anchor:start;fill:#333333;fill-opacity:1;stroke-width:0.26458332"
         id="path1157"
         inkscape:connector-curvature="0" />
      <path
         d="m 62.84543,136.01155 v -7.62 h 0.719667 v 7.62 z"
         style="font-style:normal;font-variant:normal;font-weight:300;font-stretch:normal;font-size:10.58333302px;font-family:Helvetica;-inkscape-font-specification:'Helvetica, Light';font-variant-ligatures:normal;font-variant-caps:normal;font-variant-numeric:normal;font-feature-settings:normal;text-align:start;writing-mode:lr-tb;text-anchor:start;fill:#333333;fill-opacity:1;stroke-width:0.26458332"
         id="path1159"
         inkscape:connector-curvature="0" />
      <path
         d="m 64.828151,136.01155 2.995083,-7.62 h 0.814917 l 2.921,7.62 h -0.740833 l -0.878417,-2.39183 h -3.471333 l -0.899584,2.39183 z m 1.883833,-3.00567 h 2.9845 l -1.49225,-4.0005 z"
         style="font-style:normal;font-variant:normal;font-weight:300;font-stretch:normal;font-size:10.58333302px;font-family:Helvetica;-inkscape-font-specification:'Helvetica, Light';font-variant-ligatures:normal;font-variant-caps:normal;font-variant-numeric:normal;font-feature-settings:normal;text-align:start;writing-mode:lr-tb;text-anchor:start;fill:#333333;fill-opacity:1;stroke-width:0.26458332"
         id="path1161"
         inkscape:connector-curvature="0" />
      <path
         d="m 75.457124,136.01155 v -7.62 h 4.910667 v 0.61383 h -4.191 v 2.75167 h 3.81 v 0.61383 h -3.81 v 3.64067 z"
         style="font-style:normal;font-variant:normal;font-weight:300;font-stretch:normal;font-size:10.58333302px;font-family:Helvetica;-inkscape-font-specification:'Helvetica, Light';font-variant-ligatures:normal;font-variant-caps:normal;font-variant-numeric:normal;font-feature-settings:normal;text-align:start;writing-mode:lr-tb;text-anchor:start;fill:#333333;fill-opacity:1;stroke-width:0.26458332"
         id="path1163"
         inkscape:connector-curvature="0" />
      <path
         d="m 80.723821,136.01155 2.995083,-7.62 h 0.814917 l 2.921,7.62 h -0.740833 l -0.878417,-2.39183 h -3.471333 l -0.899584,2.39183 z m 1.883833,-3.00567 h 2.9845 l -1.49225,-4.0005 z"
         style="font-style:normal;font-variant:normal;font-weight:300;font-stretch:normal;font-size:10.58333302px;font-family:Helvetica;-inkscape-font-specification:'Helvetica, Light';font-variant-ligatures:normal;font-variant-caps:normal;font-variant-numeric:normal;font-feature-settings:normal;text-align:start;writing-mode:lr-tb;text-anchor:start;fill:#333333;fill-opacity:1;stroke-width:0.26458332"
         id="path1165"
         inkscape:connector-curvature="0" />
      <path
         d="m 88.491657,136.01155 v -7.62 h 0.719667 v 7.00617 h 4.085166 v 0.61383 z"
         style="font-style:normal;font-variant:normal;font-weight:300;font-stretch:normal;font-size:10.58333302px;font-family:Helvetica;-inkscape-font-specification:'Helvetica, Light';font-variant-ligatures:normal;font-variant-caps:normal;font-variant-numeric:normal;font-feature-settings:normal;text-align:start;writing-mode:lr-tb;text-anchor:start;fill:#333333;fill-opacity:1;stroke-width:0.26458332"
         id="path1167"
         inkscape:connector-curvature="0" />
      <path
         d="m 93.68427,136.01155 2.995084,-7.62 h 0.814916 l 2.921,7.62 h -0.740833 l -0.878417,-2.39183 h -3.471333 l -0.899583,2.39183 z m 1.883834,-3.00567 h 2.9845 l -1.49225,-4.0005 z"
         style="font-style:normal;font-variant:normal;font-weight:300;font-stretch:normal;font-size:10.58333302px;font-family:Helvetica;-inkscape-font-specification:'Helvetica, Light';font-variant-ligatures:normal;font-variant-caps:normal;font-variant-numeric:normal;font-feature-settings:normal;text-align:start;writing-mode:lr-tb;text-anchor:start;fill:#333333;fill-opacity:1;stroke-width:0.26458332"
         id="path1169"
         inkscape:connector-curvature="0" />
      <path
         d="m 104.40486,131.93697 q 0.40216,0 0.74083,-0.0847 0.34925,-0.0847 0.60325,-0.26458 0.254,-0.1905 0.40217,-0.47625 0.14816,-0.28575 0.14816,-0.68792 0,-0.42333 -0.15875,-0.6985 -0.14816,-0.27517 -0.41275,-0.43392 -0.254,-0.15875 -0.59266,-0.22225 -0.32809,-0.0635 -0.68792,-0.0635 h -2.286 v 2.93159 z m -2.24367,0.61383 v 3.46075 h -0.71967 v -7.62 h 2.9845 q 1.25942,0 1.92617,0.47625 0.66675,0.46567 0.66675,1.524 0,0.71967 -0.29633,1.143 -0.28575,0.42333 -0.94192,0.71967 0.33867,0.11641 0.52917,0.33866 0.1905,0.22225 0.28575,0.508 0.0953,0.28575 0.11641,0.60325 0.0318,0.3175 0.0423,0.61384 0.0106,0.43391 0.0317,0.71966 0.0318,0.28575 0.0635,0.46567 0.0423,0.17992 0.0953,0.28575 0.0529,0.0952 0.127,0.14817 v 0.0741 h -0.79375 q -0.11642,-0.1905 -0.16934,-0.52917 -0.0423,-0.33866 -0.0741,-0.70908 -0.0212,-0.37042 -0.0423,-0.71967 -0.0106,-0.34925 -0.0529,-0.5715 -0.0635,-0.30691 -0.21167,-0.48683 -0.13758,-0.1905 -0.33866,-0.28575 -0.20109,-0.0953 -0.45509,-0.127 -0.24341,-0.0317 -0.508,-0.0317 z"
         style="font-style:normal;font-variant:normal;font-weight:300;font-stretch:normal;font-size:10.58333302px;font-family:Helvetica;-inkscape-font-specification:'Helvetica, Light';font-variant-ligatures:normal;font-variant-caps:normal;font-variant-numeric:normal;font-feature-settings:normal;text-align:start;writing-mode:lr-tb;text-anchor:start;fill:#333333;fill-opacity:1;stroke-width:0.26458332"
         id="path1171"
         inkscape:connector-curvature="0" />
      <path
         d="m 109.95019,134.08538 q -0.0106,-0.58208 0.0741,-1.05833 0.0952,-0.47625 0.508,-0.91017 0.23283,-0.24341 0.48683,-0.47625 0.254,-0.23283 0.46567,-0.46566 0.21166,-0.24342 0.34925,-0.49742 0.14816,-0.254 0.14816,-0.55033 0,-0.28575 -0.11641,-0.52917 -0.10584,-0.254 -0.3175,-0.43392 -0.21167,-0.1905 -0.51859,-0.29633 -0.30691,-0.10583 -0.6985,-0.10583 -0.39158,0 -0.6985,0.13758 -0.30691,0.13758 -0.51858,0.381 -0.20108,0.24342 -0.30692,0.5715 -0.10583,0.3175 -0.0953,0.6985 h -0.64558 q -0.0423,-0.52917 0.11642,-0.96308 0.15875,-0.43392 0.46566,-0.74084 0.3175,-0.3175 0.75142,-0.48683 0.43392,-0.16933 0.9525,-0.16933 0.53975,0 0.96308,0.14816 0.43392,0.13759 0.73025,0.40217 0.29634,0.254 0.45509,0.62442 0.15875,0.37041 0.15875,0.81491 0,0.46567 -0.21167,0.80434 -0.20108,0.32808 -0.49742,0.61383 -0.29633,0.28575 -0.61383,0.58208 -0.3175,0.28575 -0.55033,0.64559 -0.17992,0.27516 -0.20109,0.61383 -0.0212,0.32808 -0.0212,0.64558 z m -0.0635,1.92617 v -0.93133 h 0.77259 v 0.93133 z"
         style="font-style:normal;font-variant:normal;font-weight:300;font-stretch:normal;font-size:10.58333302px;font-family:Helvetica;-inkscape-font-specification:'Helvetica, Light';font-variant-ligatures:normal;font-variant-caps:normal;font-variant-numeric:normal;font-feature-settings:normal;text-align:start;writing-mode:lr-tb;text-anchor:start;fill:#333333;fill-opacity:1;stroke-width:0.26458332"
         id="path1173"
         inkscape:connector-curvature="0" />
    </g>
    <g
       aria-label="Moda, Livros, Estilo de vida"
       style="font-style:normal;font-weight:normal;font-size:3.88055563px;line-height:1.25;font-family:sans-serif;letter-spacing:0.13229167px;word-spacing:0px;fill:#e61446;fill-opacity:1;stroke:none;stroke-width:0.26458332"
       id="text915">
      <path
         d="m 45.541475,142.11716 v -0.20085 h 0.360012 v -2.42535 h -0.380855 v -0.20274 h 0.824239 l 0.992877,2.01417 0.992876,-2.01417 h 0.77308 v 0.20274 h -0.377066 v 2.42535 h 0.361907 v 0.20085 H 47.98198 v -0.20085 h 0.360013 v -2.1866 l -0.970139,1.97249 h -0.267167 l -0.970139,-1.97249 v 2.1866 h 0.360012 v 0.20085 z"
         style="font-style:normal;font-variant:normal;font-weight:normal;font-stretch:normal;font-size:3.88055563px;line-height:1.25;font-family:serif;-inkscape-font-specification:serif;letter-spacing:0.13229167px;fill:#e61446;fill-opacity:1;stroke-width:0.26458332"
         id="path1176"
         inkscape:connector-curvature="0" />
      <path
         d="m 50.598358,141.98452 q 0.280431,0 0.422541,-0.22169 0.144005,-0.22169 0.144005,-0.65371 0,-0.43201 -0.144005,-0.65181 -0.14211,-0.22169 -0.422541,-0.22169 -0.28043,0 -0.424435,0.22169 -0.142111,0.2198 -0.142111,0.65181 0,0.43202 0.144005,0.65371 0.144005,0.22169 0.422541,0.22169 z m 0,0.18759 q -0.439594,0 -0.706761,-0.28991 -0.267167,-0.2918 -0.267167,-0.77308 0,-0.48128 0.265272,-0.77118 0.267167,-0.28991 0.708656,-0.28991 0.441489,0 0.706762,0.28991 0.267167,0.2899 0.267167,0.77118 0,0.48128 -0.267167,0.77308 -0.265273,0.28991 -0.706762,0.28991 z"
         style="font-style:normal;font-variant:normal;font-weight:normal;font-stretch:normal;font-size:3.88055563px;line-height:1.25;font-family:serif;-inkscape-font-specification:serif;letter-spacing:0.13229167px;fill:#e61446;fill-opacity:1;stroke-width:0.26458332"
         id="path1178"
         inkscape:connector-curvature="0" />
      <path
         d="m 53.934761,141.91631 h 0.333485 v 0.20085 h -0.682129 v -0.31454 q -0.102319,0.18948 -0.261483,0.28043 -0.157268,0.0891 -0.390329,0.0891 -0.371381,0 -0.608231,-0.2937 -0.234956,-0.29559 -0.234956,-0.76929 0,-0.4737 0.234956,-0.76739 0.234955,-0.2937 0.608231,-0.2937 0.233061,0 0.390329,0.0909 0.159164,0.0891 0.261483,0.27854 v -1.04783 h -0.329695 v -0.20085 h 0.678339 z m -0.348644,-0.70676 v -0.19896 q 0,-0.3619 -0.140215,-0.55328 -0.138321,-0.19138 -0.403593,-0.19138 -0.269062,0 -0.407383,0.21222 -0.136425,0.21222 -0.136425,0.63097 0,0.41686 0.136425,0.63097 0.138321,0.21411 0.407383,0.21411 0.265272,0 0.403593,-0.18948 0.140215,-0.19137 0.140215,-0.55517 z"
         style="font-style:normal;font-variant:normal;font-weight:normal;font-stretch:normal;font-size:3.88055563px;line-height:1.25;font-family:serif;-inkscape-font-specification:serif;letter-spacing:0.13229167px;fill:#e61446;fill-opacity:1;stroke-width:0.26458332"
         id="path1180"
         inkscape:connector-curvature="0" />
      <path
         d="m 56.060385,141.48429 v -0.42633 h -0.449068 q -0.259588,0 -0.38654,0.1118 -0.126952,0.11179 -0.126952,0.34295 0,0.21033 0.128847,0.33349 0.128846,0.12316 0.348644,0.12316 0.217902,0 0.350538,-0.13453 0.134531,-0.13453 0.134531,-0.35054 z m 0.348644,-0.62528 v 1.0573 h 0.310747 v 0.20085 h -0.659391 v -0.21791 q -0.115583,0.14022 -0.267167,0.20654 -0.151584,0.0663 -0.354328,0.0663 -0.33538,0 -0.53244,-0.17812 -0.197059,-0.17811 -0.197059,-0.48128 0,-0.31264 0.225481,-0.48506 0.225482,-0.17243 0.636654,-0.17243 h 0.488859 v -0.13832 q 0,-0.22927 -0.140215,-0.35433 -0.138321,-0.12695 -0.39033,-0.12695 -0.208428,0 -0.33159,0.0947 -0.123162,0.0947 -0.153479,0.28043 h -0.180006 v -0.40738 q 0.181901,-0.0777 0.352433,-0.11559 0.172427,-0.0398 0.33538,-0.0398 0.418751,0 0.636654,0.20843 0.219797,0.20653 0.219797,0.60255 z"
         style="font-style:normal;font-variant:normal;font-weight:normal;font-stretch:normal;font-size:3.88055563px;line-height:1.25;font-family:serif;-inkscape-font-specification:serif;letter-spacing:0.13229167px;fill:#e61446;fill-opacity:1;stroke-width:0.26458332"
         id="path1182"
         inkscape:connector-curvature="0" />
      <path
         d="m 57.100287,142.49422 q 0.178111,-0.13074 0.261483,-0.30885 0.08337,-0.17622 0.08337,-0.42823 v -0.0701 h 0.373276 q -0.01516,0.32401 -0.153479,0.55517 -0.136426,0.23306 -0.413067,0.4036 z"
         style="font-style:normal;font-variant:normal;font-weight:normal;font-stretch:normal;font-size:3.88055563px;line-height:1.25;font-family:serif;-inkscape-font-specification:serif;letter-spacing:0.13229167px;fill:#e61446;fill-opacity:1;stroke-width:0.26458332"
         id="path1184"
         inkscape:connector-curvature="0" />
      <path
         d="m 59.90959,142.11716 v -0.20085 h 0.360013 v -2.42535 H 59.90959 v -0.20274 h 1.10467 v 0.20274 h -0.360012 v 2.39314 h 1.292255 v -0.4737 h 0.233061 v 0.70676 z"
         style="font-style:normal;font-variant:normal;font-weight:normal;font-stretch:normal;font-size:3.88055563px;line-height:1.25;font-family:serif;-inkscape-font-specification:serif;letter-spacing:0.13229167px;fill:#e61446;fill-opacity:1;stroke-width:0.26458332"
         id="path1186"
         inkscape:connector-curvature="0" />
      <path
         d="m 62.781767,139.4777 q 0,-0.0872 0.06253,-0.15159 0.06442,-0.0644 0.153479,-0.0644 0.08716,0 0.14969,0.0644 0.06442,0.0644 0.06442,0.15159 0,0.0891 -0.06253,0.15158 -0.06253,0.0625 -0.151585,0.0625 -0.08906,0 -0.153479,-0.0625 -0.06253,-0.0625 -0.06253,-0.15158 z m 0.445279,2.43861 h 0.329695 v 0.20085 h -1.011824 v -0.20085 h 0.333485 v -1.61058 h -0.333485 v -0.20275 h 0.682129 z"
         style="font-style:normal;font-variant:normal;font-weight:normal;font-stretch:normal;font-size:3.88055563px;line-height:1.25;font-family:serif;-inkscape-font-specification:serif;letter-spacing:0.13229167px;fill:#e61446;fill-opacity:1;stroke-width:0.26458332"
         id="path1188"
         inkscape:connector-curvature="0" />
      <path
         d="m 64.738754,142.11716 -0.740868,-1.81143 h -0.229271 v -0.20275 h 0.926558 v 0.20275 h -0.322116 l 0.566546,1.3851 0.566546,-1.3851 h -0.301274 v -0.20275 h 0.756026 v 0.20275 H 65.73542 l -0.740868,1.81143 z"
         style="font-style:normal;font-variant:normal;font-weight:normal;font-stretch:normal;font-size:3.88055563px;line-height:1.25;font-family:serif;-inkscape-font-specification:serif;letter-spacing:0.13229167px;fill:#e61446;fill-opacity:1;stroke-width:0.26458332"
         id="path1190"
         inkscape:connector-curvature="0" />
      <path
         d="m 67.957679,140.09919 v 0.50402 h -0.20085 q -0.0095,-0.14969 -0.08337,-0.22359 -0.0739,-0.0739 -0.216007,-0.0739 -0.257693,0 -0.396014,0.17811 -0.136426,0.17811 -0.136426,0.51159 v 0.92088 h 0.403593 v 0.20085 H 66.26183 v -0.20085 h 0.314537 v -1.61437 h -0.333485 v -0.19896 h 0.682129 v 0.35812 q 0.10232,-0.21032 0.263378,-0.31075 0.161058,-0.10232 0.392224,-0.10232 0.08527,0 0.178111,0.0133 0.09474,0.0133 0.198955,0.0379 z"
         style="font-style:normal;font-variant:normal;font-weight:normal;font-stretch:normal;font-size:3.88055563px;line-height:1.25;font-family:serif;-inkscape-font-specification:serif;letter-spacing:0.13229167px;fill:#e61446;fill-opacity:1;stroke-width:0.26458332"
         id="path1192"
         inkscape:connector-curvature="0" />
      <path
         d="m 69.259064,141.98452 q 0.280431,0 0.422541,-0.22169 0.144005,-0.22169 0.144005,-0.65371 0,-0.43201 -0.144005,-0.65181 -0.14211,-0.22169 -0.422541,-0.22169 -0.280431,0 -0.424436,0.22169 -0.14211,0.2198 -0.14211,0.65181 0,0.43202 0.144005,0.65371 0.144005,0.22169 0.422541,0.22169 z m 0,0.18759 q -0.439594,0 -0.706761,-0.28991 -0.267168,-0.2918 -0.267168,-0.77308 0,-0.48128 0.265273,-0.77118 0.267167,-0.28991 0.708656,-0.28991 0.441489,0 0.706761,0.28991 0.267167,0.2899 0.267167,0.77118 0,0.48128 -0.267167,0.77308 -0.265272,0.28991 -0.706761,0.28991 z"
         style="font-style:normal;font-variant:normal;font-weight:normal;font-stretch:normal;font-size:3.88055563px;line-height:1.25;font-family:serif;-inkscape-font-specification:serif;letter-spacing:0.13229167px;fill:#e61446;fill-opacity:1;stroke-width:0.26458332"
         id="path1194"
         inkscape:connector-curvature="0" />
      <path
         d="m 70.776456,142.00536 v -0.46991 h 0.200849 q 0.0076,0.22548 0.140215,0.33728 0.134531,0.11179 0.396014,0.11179 0.234956,0 0.358118,-0.0872 0.123162,-0.0891 0.123162,-0.25769 0,-0.13264 -0.09095,-0.21412 -0.08906,-0.0815 -0.378961,-0.17432 l -0.252009,-0.0853 q -0.259588,-0.0834 -0.377065,-0.20843 -0.115583,-0.12506 -0.115583,-0.31833 0,-0.27664 0.202743,-0.43391 0.202744,-0.15727 0.560862,-0.15727 0.159163,0 0.33538,0.0417 0.176217,0.0417 0.363802,0.12127 v 0.43959 h -0.200849 q -0.0076,-0.19516 -0.136426,-0.30506 -0.128846,-0.1099 -0.350538,-0.1099 -0.219797,0 -0.333485,0.0777 -0.111794,0.0777 -0.111794,0.23307 0,0.12695 0.08527,0.20463 0.08527,0.0758 0.341065,0.15538 l 0.276641,0.0853 q 0.286115,0.0891 0.411172,0.22359 0.126952,0.13264 0.126952,0.34296 0,0.28612 -0.219797,0.45096 -0.217902,0.16296 -0.602547,0.16296 -0.195165,0 -0.380856,-0.0417 -0.18569,-0.0417 -0.371381,-0.12506 z"
         style="font-style:normal;font-variant:normal;font-weight:normal;font-stretch:normal;font-size:3.88055563px;line-height:1.25;font-family:serif;-inkscape-font-specification:serif;letter-spacing:0.13229167px;fill:#e61446;fill-opacity:1;stroke-width:0.26458332"
         id="path1196"
         inkscape:connector-curvature="0" />
      <path
         d="m 72.824393,142.49422 q 0.178111,-0.13074 0.261483,-0.30885 0.08337,-0.17622 0.08337,-0.42823 v -0.0701 h 0.373276 q -0.01516,0.32401 -0.153479,0.55517 -0.136426,0.23306 -0.413067,0.4036 z"
         style="font-style:normal;font-variant:normal;font-weight:normal;font-stretch:normal;font-size:3.88055563px;line-height:1.25;font-family:serif;-inkscape-font-specification:serif;letter-spacing:0.13229167px;fill:#e61446;fill-opacity:1;stroke-width:0.26458332"
         id="path1198"
         inkscape:connector-curvature="0" />
      <path
         d="m 75.633695,142.11716 v -0.20085 h 0.360013 v -2.42535 h -0.360013 v -0.20274 h 2.277553 v 0.62907 h -0.233061 v -0.39601 h -1.299835 v 0.9474 h 0.926559 v -0.35433 h 0.233061 v 0.93982 h -0.233061 v -0.35433 h -0.926559 v 1.18426 h 1.330152 v -0.39602 h 0.233061 v 0.62908 z"
         style="font-style:normal;font-variant:normal;font-weight:normal;font-stretch:normal;font-size:3.88055563px;line-height:1.25;font-family:serif;-inkscape-font-specification:serif;letter-spacing:0.13229167px;fill:#e61446;fill-opacity:1;stroke-width:0.26458332"
         id="path1200"
         inkscape:connector-curvature="0" />
      <path
         d="m 78.6044,142.00536 v -0.46991 h 0.200849 q 0.0076,0.22548 0.140215,0.33728 0.134531,0.11179 0.396014,0.11179 0.234956,0 0.358118,-0.0872 0.123162,-0.0891 0.123162,-0.25769 0,-0.13264 -0.09095,-0.21412 -0.08906,-0.0815 -0.37896,-0.17432 l -0.252009,-0.0853 q -0.259588,-0.0834 -0.377066,-0.20843 -0.115583,-0.12506 -0.115583,-0.31833 0,-0.27664 0.202744,-0.43391 0.202744,-0.15727 0.560862,-0.15727 0.159163,0 0.33538,0.0417 0.176217,0.0417 0.363802,0.12127 v 0.43959 h -0.200849 q -0.0076,-0.19516 -0.136426,-0.30506 -0.128846,-0.1099 -0.350538,-0.1099 -0.219797,0 -0.333486,0.0777 -0.111793,0.0777 -0.111793,0.23307 0,0.12695 0.08527,0.20463 0.08527,0.0758 0.341065,0.15538 l 0.276641,0.0853 q 0.286115,0.0891 0.411172,0.22359 0.126952,0.13264 0.126952,0.34296 0,0.28612 -0.219797,0.45096 -0.217903,0.16296 -0.602548,0.16296 -0.195164,0 -0.380855,-0.0417 -0.185691,-0.0417 -0.371381,-0.12506 z"
         style="font-style:normal;font-variant:normal;font-weight:normal;font-stretch:normal;font-size:3.88055563px;line-height:1.25;font-family:serif;-inkscape-font-specification:serif;letter-spacing:0.13229167px;fill:#e61446;fill-opacity:1;stroke-width:0.26458332"
         id="path1202"
         inkscape:connector-curvature="0" />
      <path
         d="m 80.930874,140.30573 h -0.306958 v -0.20275 h 0.306958 v -0.62528 h 0.350539 v 0.62528 h 0.655602 v 0.20275 h -0.655602 v 1.27899 q 0,0.2558 0.04927,0.3278 0.04926,0.072 0.181901,0.072 0.136426,0 0.198954,-0.0796 0.06253,-0.0815 0.06632,-0.26148 h 0.263378 q -0.01516,0.27474 -0.14969,0.40169 -0.134531,0.12696 -0.409277,0.12696 -0.301274,0 -0.426331,-0.13264 -0.125057,-0.13453 -0.125057,-0.45475 z"
         style="font-style:normal;font-variant:normal;font-weight:normal;font-stretch:normal;font-size:3.88055563px;line-height:1.25;font-family:serif;-inkscape-font-specification:serif;letter-spacing:0.13229167px;fill:#e61446;fill-opacity:1;stroke-width:0.26458332"
         id="path1204"
         inkscape:connector-curvature="0" />
      <path
         d="m 82.582796,139.4777 q 0,-0.0872 0.06253,-0.15159 0.06442,-0.0644 0.153479,-0.0644 0.08716,0 0.149689,0.0644 0.06442,0.0644 0.06442,0.15159 0,0.0891 -0.06253,0.15158 -0.06253,0.0625 -0.151584,0.0625 -0.08906,0 -0.153479,-0.0625 -0.06253,-0.0625 -0.06253,-0.15158 z m 0.445279,2.43861 h 0.329695 v 0.20085 h -1.011824 v -0.20085 h 0.333485 v -1.61058 h -0.333485 v -0.20275 h 0.682129 z"
         style="font-style:normal;font-variant:normal;font-weight:normal;font-stretch:normal;font-size:3.88055563px;line-height:1.25;font-family:serif;-inkscape-font-specification:serif;letter-spacing:0.13229167px;fill:#e61446;fill-opacity:1;stroke-width:0.26458332"
         id="path1206"
         inkscape:connector-curvature="0" />
      <path
         d="m 84.37683,141.91631 h 0.329695 v 0.20085 h -1.013719 v -0.20085 h 0.33538 v -2.54662 h -0.33538 v -0.20085 h 0.684024 z"
         style="font-style:normal;font-variant:normal;font-weight:normal;font-stretch:normal;font-size:3.88055563px;line-height:1.25;font-family:serif;-inkscape-font-specification:serif;letter-spacing:0.13229167px;fill:#e61446;fill-opacity:1;stroke-width:0.26458332"
         id="path1208"
         inkscape:connector-curvature="0" />
      <path
         d="m 86.123493,141.98452 q 0.280431,0 0.422541,-0.22169 0.144005,-0.22169 0.144005,-0.65371 0,-0.43201 -0.144005,-0.65181 -0.14211,-0.22169 -0.422541,-0.22169 -0.28043,0 -0.424435,0.22169 -0.142111,0.2198 -0.142111,0.65181 0,0.43202 0.144005,0.65371 0.144005,0.22169 0.422541,0.22169 z m 0,0.18759 q -0.439594,0 -0.706761,-0.28991 -0.267167,-0.2918 -0.267167,-0.77308 0,-0.48128 0.265272,-0.77118 0.267167,-0.28991 0.708656,-0.28991 0.441489,0 0.706762,0.28991 0.267167,0.2899 0.267167,0.77118 0,0.48128 -0.267167,0.77308 -0.265273,0.28991 -0.706762,0.28991 z"
         style="font-style:normal;font-variant:normal;font-weight:normal;font-stretch:normal;font-size:3.88055563px;line-height:1.25;font-family:serif;-inkscape-font-specification:serif;letter-spacing:0.13229167px;fill:#e61446;fill-opacity:1;stroke-width:0.26458332"
         id="path1210"
         inkscape:connector-curvature="0" />
      <path
         d="m 90.8276,141.91631 h 0.333486 v 0.20085 h -0.682129 v -0.31454 q -0.10232,0.18948 -0.261483,0.28043 -0.157269,0.0891 -0.390329,0.0891 -0.371382,0 -0.608232,-0.2937 -0.234956,-0.29559 -0.234956,-0.76929 0,-0.4737 0.234956,-0.76739 0.234955,-0.2937 0.608232,-0.2937 0.23306,0 0.390329,0.0909 0.159163,0.0891 0.261483,0.27854 v -1.04783 h -0.329696 v -0.20085 H 90.8276 Z m -0.348643,-0.70676 v -0.19896 q 0,-0.3619 -0.140216,-0.55328 -0.13832,-0.19138 -0.403593,-0.19138 -0.269062,0 -0.407382,0.21222 -0.136426,0.21222 -0.136426,0.63097 0,0.41686 0.136426,0.63097 0.13832,0.21411 0.407382,0.21411 0.265273,0 0.403593,-0.18948 0.140216,-0.19137 0.140216,-0.55517 z"
         style="font-style:normal;font-variant:normal;font-weight:normal;font-stretch:normal;font-size:3.88055563px;line-height:1.25;font-family:serif;-inkscape-font-specification:serif;letter-spacing:0.13229167px;fill:#e61446;fill-opacity:1;stroke-width:0.26458332"
         id="path1212"
         inkscape:connector-curvature="0" />
      <path
         d="m 93.512193,141.14702 h -1.502578 v 0.0152 q 0,0.40738 0.153479,0.61581 0.153479,0.20653 0.452857,0.20653 0.229272,0 0.375171,-0.11937 0.147795,-0.12127 0.206534,-0.35812 h 0.280431 q -0.08337,0.33159 -0.308853,0.49833 -0.223587,0.16675 -0.589284,0.16675 -0.441489,0 -0.710551,-0.28991 -0.267167,-0.2918 -0.267167,-0.77308 0,-0.47749 0.263378,-0.76929 0.263377,-0.2918 0.691603,-0.2918 0.456647,0 0.701077,0.28233 0.244429,0.28043 0.253903,0.81666 z m -0.411172,-0.20085 q -0.01137,-0.35243 -0.149689,-0.53055 -0.136426,-0.18 -0.394119,-0.18 -0.24064,0 -0.378961,0.18 -0.13832,0.18001 -0.168637,0.53055 z"
         style="font-style:normal;font-variant:normal;font-weight:normal;font-stretch:normal;font-size:3.88055563px;line-height:1.25;font-family:serif;-inkscape-font-specification:serif;letter-spacing:0.13229167px;fill:#e61446;fill-opacity:1;stroke-width:0.26458332"
         id="path1214"
         inkscape:connector-curvature="0" />
      <path
         d="m 96.164226,142.11716 -0.740868,-1.81143 h -0.229271 v -0.20275 h 0.926558 v 0.20275 h -0.322116 l 0.566546,1.3851 0.566546,-1.3851 h -0.301274 v -0.20275 h 0.756027 v 0.20275 h -0.225482 l -0.740868,1.81143 z"
         style="font-style:normal;font-variant:normal;font-weight:normal;font-stretch:normal;font-size:3.88055563px;line-height:1.25;font-family:serif;-inkscape-font-specification:serif;letter-spacing:0.13229167px;fill:#e61446;fill-opacity:1;stroke-width:0.26458332"
         id="path1216"
         inkscape:connector-curvature="0" />
      <path
         d="m 97.905207,139.4777 q 0,-0.0872 0.06253,-0.15159 0.06442,-0.0644 0.153479,-0.0644 0.08716,0 0.14969,0.0644 0.06442,0.0644 0.06442,0.15159 0,0.0891 -0.06253,0.15158 -0.06253,0.0625 -0.151584,0.0625 -0.08906,0 -0.153479,-0.0625 -0.06253,-0.0625 -0.06253,-0.15158 z m 0.445278,2.43861 h 0.329696 v 0.20085 h -1.011825 v -0.20085 h 0.333486 v -1.61058 h -0.333486 v -0.20275 h 0.682129 z"
         style="font-style:normal;font-variant:normal;font-weight:normal;font-stretch:normal;font-size:3.88055563px;line-height:1.25;font-family:serif;-inkscape-font-specification:serif;letter-spacing:0.13229167px;fill:#e61446;fill-opacity:1;stroke-width:0.26458332"
         id="path1218"
         inkscape:connector-curvature="0" />
      <path
         d="m 100.94034,141.91631 h 0.33348 v 0.20085 h -0.68213 v -0.31454 q -0.10232,0.18948 -0.26148,0.28043 -0.15727,0.0891 -0.39033,0.0891 -0.371381,0 -0.608231,-0.2937 -0.234956,-0.29559 -0.234956,-0.76929 0,-0.4737 0.234956,-0.76739 0.234955,-0.2937 0.608231,-0.2937 0.23306,0 0.39033,0.0909 0.15916,0.0891 0.26148,0.27854 v -1.04783 H 100.262 v -0.20085 h 0.67834 z m -0.34865,-0.70676 v -0.19896 q 0,-0.3619 -0.14021,-0.55328 -0.13832,-0.19138 -0.4036,-0.19138 -0.269058,0 -0.407378,0.21222 -0.136426,0.21222 -0.136426,0.63097 0,0.41686 0.136426,0.63097 0.13832,0.21411 0.407378,0.21411 0.26528,0 0.4036,-0.18948 0.14021,-0.19137 0.14021,-0.55517 z"
         style="font-style:normal;font-variant:normal;font-weight:normal;font-stretch:normal;font-size:3.88055563px;line-height:1.25;font-family:serif;-inkscape-font-specification:serif;letter-spacing:0.13229167px;fill:#e61446;fill-opacity:1;stroke-width:0.26458332"
         id="path1220"
         inkscape:connector-curvature="0" />
      <path
         d="m 103.06596,141.48429 v -0.42633 h -0.44907 q -0.25959,0 -0.38654,0.1118 -0.12695,0.11179 -0.12695,0.34295 0,0.21033 0.12885,0.33349 0.12884,0.12316 0.34864,0.12316 0.2179,0 0.35054,-0.13453 0.13453,-0.13453 0.13453,-0.35054 z m 0.34864,-0.62528 v 1.0573 h 0.31075 v 0.20085 h -0.65939 v -0.21791 q -0.11558,0.14022 -0.26717,0.20654 -0.15158,0.0663 -0.35433,0.0663 -0.33538,0 -0.53244,-0.17812 -0.19706,-0.17811 -0.19706,-0.48128 0,-0.31264 0.22549,-0.48506 0.22548,-0.17243 0.63665,-0.17243 h 0.48886 v -0.13832 q 0,-0.22927 -0.14022,-0.35433 -0.13832,-0.12695 -0.39033,-0.12695 -0.20842,0 -0.33159,0.0947 -0.12316,0.0947 -0.15348,0.28043 h -0.18 v -0.40738 q 0.1819,-0.0777 0.35243,-0.11559 0.17243,-0.0398 0.33538,-0.0398 0.41875,0 0.63665,0.20843 0.2198,0.20653 0.2198,0.60255 z"
         style="font-style:normal;font-variant:normal;font-weight:normal;font-stretch:normal;font-size:3.88055563px;line-height:1.25;font-family:serif;-inkscape-font-specification:serif;letter-spacing:0.13229167px;fill:#e61446;fill-opacity:1;stroke-width:0.26458332"
         id="path1222"
         inkscape:connector-curvature="0" />
    </g>
  </g>
</svg>
